<?xml version="1.0" encoding="UTF-8"?>
<svg id="Layer_2" data-name="Layer 2" xmlns="http://www.w3.org/2000/svg" viewBox="0 0 128.87 182.35">
  <defs>
    <style>
      .cls-1 {
        fill: none;
        stroke: #fcd950;
        stroke-miterlimit: 10;
        stroke-width: 2px;
      }

      .cls-2 {
        fill: #f9f0df;
      }

      .cls-2, .cls-3, .cls-4, .cls-5, .cls-6, .cls-7 {
        stroke-width: 0px;
      }

      .cls-3 {
        fill: #231f20;
      }

      .cls-4 {
        fill: #8ac865;
      }

      .cls-5 {
        fill: #848cc5;
      }

      .cls-6 {
        fill: #fcd950;
      }

      .cls-7 {
        fill: #eb8d69;
      }
    </style>
  </defs>
  <path class="cls-5" d="m122.94,62.51v112.36H6.47V62.39C6.47,30.42,32.55,4.5,64.71,4.5s58.23,25.92,58.23,57.9v.11Z"/>
  <path class="cls-6" d="m103.81,106.1c0,21.59-17.5,39.1-39.1,39.1s-39.1-17.5-39.1-39.1,17.5-39.1,39.1-39.1,39.1,17.5,39.1,39.1Z"/>
  <polygon class="cls-3" points="7.28 169.18 122.14 86.15 122.14 174.86 7.28 174.87 7.28 169.18"/>
  <path class="cls-7" d="m122.14,97.6c-6.1,4.59-9.4-.06-15.5,4.53-6.1,4.59-2.57,9.28-8.66,13.87-6.1,4.59-9.63-.1-15.73,4.48-6.1,4.59-2.57,9.28-8.67,13.87-6.1,4.59-9.63-.1-15.72,4.48-6.1,4.59-2.57,9.28-8.66,13.87-6.1,4.59-9.63-.1-15.72,4.48-6.1,4.59-2.57,9.28-8.66,13.87-5.81,4.37-9.17.25-14.76,3.82h-2.78v-11.25c3.21-.24,6.09.71,10.06-2.28,6.1-4.59,2.57-9.28,8.66-13.87,6.1-4.59,9.63.1,15.73-4.48,6.1-4.59,2.57-9.28,8.66-13.87,6.1-4.59,9.63.1,15.73-4.48,6.1-4.59,2.57-9.28,8.66-13.87,6.1-4.59,9.63.1,15.73-4.49,6.09-4.59,2.57-9.28,8.66-13.87,6.1-4.59,9.63.1,15.73-4.49,6.1-4.59,2.68-9.2,7.24-12.63v22.3Z"/>
  <path class="cls-4" d="m65.32,174.87c5.34-4.45,2.21-8.99,8.12-13.44,6.1-4.59,9.63.1,15.73-4.48,6.1-4.59,2.56-9.28,8.66-13.87,6.1-4.59,9.63.1,15.73-4.49,6.1-4.59,2.49-9.22,8.59-13.81v-13.18c-2.81.04-5.48-.42-9.02,2.24-6.09,4.59-2.56,9.28-8.66,13.87-6.1,4.59-9.63-.1-15.73,4.48-6.1,4.59-2.57,9.28-8.66,13.87-6.1,4.59-9.63-.1-15.72,4.48-6.1,4.59-2.57,9.28-8.66,13.87-6.1,4.59-9.63-.1-15.73,4.48-2.62,1.97-3.46,3.96-4.05,5.96h29.42Z"/>
  <path class="cls-5" d="m122.14,148.68c-.35.33-.73.66-1.16.98-6.1,4.59-9.63-.11-15.73,4.48-6.1,4.59-2.57,9.28-8.66,13.87-6.1,4.59-9.63-.1-15.72,4.48-1.04.78-1.8,1.57-2.38,2.36h28.53c1.12-3.02,1.01-6.05,4.98-9.04,4.01-3.02,6.91-2.02,10.15-2.29v-14.85Z"/>
  <polygon class="cls-3" points="122.14 169.18 7.28 86.15 7.28 174.86 122.14 174.87 122.14 169.18"/>
  <path class="cls-7" d="m7.28,97.6c6.1,4.59,9.4-.06,15.49,4.53,6.1,4.59,2.57,9.28,8.66,13.87,6.1,4.59,9.63-.1,15.73,4.48,6.1,4.59,2.57,9.28,8.66,13.87,6.1,4.59,9.63-.1,15.73,4.48,6.1,4.59,2.57,9.28,8.66,13.87,6.1,4.59,9.63-.1,15.73,4.48,6.1,4.59,2.57,9.28,8.66,13.87,5.8,4.37,9.17.25,14.76,3.82h2.78v-11.25c-3.21-.24-6.09.71-10.06-2.28-6.1-4.59-2.57-9.28-8.66-13.87-6.1-4.59-9.63.1-15.73-4.49-6.1-4.59-2.56-9.28-8.66-13.87-6.1-4.59-9.63.11-15.72-4.48-6.1-4.59-2.57-9.28-8.66-13.87-6.1-4.59-9.63.1-15.73-4.49-6.1-4.59-2.56-9.28-8.66-13.87-6.1-4.59-9.63.1-15.73-4.49-6.1-4.59-2.68-9.2-7.24-12.63v22.3Z"/>
  <path class="cls-4" d="m64.1,174.87c-5.34-4.45-2.21-8.99-8.12-13.44-6.1-4.59-9.63.11-15.72-4.48-6.1-4.59-2.57-9.28-8.66-13.87-6.1-4.59-9.63.1-15.73-4.49-6.1-4.59-2.49-9.22-8.58-13.81v-13.18c2.81.04,5.48-.42,9.02,2.24,6.1,4.59,2.56,9.28,8.66,13.87,6.1,4.59,9.63-.1,15.73,4.49,6.1,4.59,2.57,9.28,8.66,13.87,6.1,4.59,9.63-.11,15.73,4.48,6.1,4.59,2.56,9.28,8.66,13.87,6.1,4.59,9.63-.1,15.73,4.48,2.62,1.97,3.46,3.96,4.05,5.96h-29.42Z"/>
  <path class="cls-5" d="m7.28,148.68c.34.33.73.66,1.16.98,6.1,4.59,9.63-.1,15.73,4.48,6.1,4.59,2.57,9.28,8.66,13.87,6.1,4.59,9.63-.1,15.72,4.48,1.04.79,1.8,1.57,2.38,2.36h-28.53c-1.12-3.02-1.01-6.05-4.98-9.04-4.01-3.02-6.9-2.02-10.15-2.29v-14.85Z"/>
  <path class="cls-2" d="m28.13,52.38c-6.06-6.64-2.72-13.97-2.72-13.97-.79.7-1.51,1.5-2.13,2.41-4.1,5.97-2.59,14.14,3.39,18.24,5.98,4.1,14.14,2.58,18.24-3.39.58-.84,1.04-1.71,1.4-2.62,0,0-4.32,3.98-10.29,3.22,0,0-4.95-.66-7.89-3.89Z"/>
  <path class="cls-2" d="m57.43,32.14c0,.38-4.46.17-4.56.52-.1.36,3.87,2.41,3.69,2.73-.19.32-3.94-2.09-4.21-1.83-.26.26,2.16,4.02,1.83,4.21-.32.18-2.37-3.78-2.73-3.69-.35.09-.14,4.56-.52,4.56s-.17-4.46-.52-4.56c-.36-.1-2.41,3.87-2.73,3.69-.32-.19,2.1-3.95,1.84-4.21-.26-.26-4.02,2.16-4.21,1.83-.19-.32,3.78-2.37,3.69-2.73-.09-.35-4.56-.14-4.56-.52s4.47-.17,4.56-.52c.1-.36-3.87-2.41-3.69-2.73.18-.32,3.95,2.09,4.21,1.83.26-.26-2.16-4.02-1.83-4.21.32-.18,2.36,3.79,2.73,3.69.35-.09.14-4.56.52-4.56s.17,4.46.52,4.56c.36.1,2.41-3.87,2.73-3.69.32.19-2.09,3.95-1.83,4.21.26.26,4.02-2.15,4.21-1.83.18.32-3.78,2.37-3.69,2.73.09.35,4.56.14,4.56.52Z"/>
  <path class="cls-2" d="m88.04,31.46c0,.38-4.46.17-4.56.52-.1.36,3.87,2.41,3.69,2.73-.19.32-3.95-2.09-4.21-1.83-.26.26,2.16,4.02,1.83,4.21-.32.18-2.36-3.79-2.73-3.69-.35.09-.14,4.56-.52,4.56s-.17-4.47-.52-4.56c-.36-.1-2.41,3.87-2.73,3.69-.32-.19,2.09-3.95,1.83-4.21-.26-.26-4.02,2.16-4.21,1.84-.18-.32,3.79-2.37,3.69-2.73-.1-.35-4.56-.14-4.56-.52s4.47-.17,4.56-.52c.1-.36-3.87-2.41-3.69-2.73.19-.32,3.95,2.09,4.21,1.83.26-.26-2.16-4.02-1.83-4.21.32-.18,2.36,3.79,2.73,3.69.35-.09.14-4.56.52-4.56s.17,4.47.52,4.56c.36.1,2.41-3.87,2.73-3.69.32.19-2.09,3.95-1.83,4.21.26.26,4.02-2.16,4.21-1.84.19.32-3.78,2.37-3.69,2.73.1.35,4.56.14,4.56.52Z"/>
  <path class="cls-2" d="m110.3,52.63c0,.38-4.47.17-4.56.52-.1.36,3.87,2.41,3.69,2.73-.19.32-3.94-2.1-4.2-1.83-.26.26,2.15,4.02,1.83,4.21-.32.18-2.37-3.79-2.73-3.69-.35.09-.14,4.56-.52,4.56s-.17-4.46-.52-4.56c-.36-.1-2.41,3.87-2.73,3.69-.32-.19,2.1-3.95,1.83-4.21-.26-.26-4.02,2.15-4.21,1.83-.18-.32,3.79-2.36,3.69-2.73-.09-.35-4.56-.14-4.56-.52s4.47-.17,4.56-.52c.1-.36-3.87-2.41-3.69-2.73.19-.32,3.95,2.09,4.21,1.83.26-.26-2.15-4.02-1.83-4.21.32-.18,2.36,3.79,2.73,3.69.35-.09.14-4.56.52-4.56s.17,4.47.52,4.56c.36.1,2.41-3.87,2.73-3.69.32.19-2.09,3.95-1.83,4.21.26.26,4.02-2.16,4.2-1.83.19.32-3.78,2.37-3.69,2.73.09.35,4.56.14,4.56.52Z"/>
  <path class="cls-1" d="m123.07,62.23v113.14H6.6V62.11C6.6,29.92,32.67,3.82,64.83,3.82s58.23,26.1,58.23,58.3v.11Z"/>
</svg>