<?xml version="1.0" encoding="UTF-8" standalone="no"?>
<!DOCTYPE svg PUBLIC "-//W3C//DTD SVG 1.1//EN" "http://www.w3.org/Graphics/SVG/1.1/DTD/svg11.dtd">
<svg xmlns="http://www.w3.org/2000/svg" version="1.1" viewBox="0.00 0.00 106.00 150.00">
<path fill="#fcd950" d="
  M 77.28 8.54
  C 77.59 8.48 77.80 8.61 77.92 8.92
  C 78.03 9.20 78.23 9.41 78.50 9.54
  C 79.87 10.20 81.13 11.12 82.26 12.30
  C 82.88 12.94 83.67 12.88 84.24 13.39
  C 96.09 24.02 102.02 36.89 102.01 52.00
  C 101.99 82.82 101.99 113.58 102.00 144.28
  C 102.00 144.68 101.68 145.00 101.28 145.00
  L 5.06 145.00
  C 4.69 145.00 4.51 144.82 4.51 144.45
  C 4.48 101.26 4.49 71.05 4.54 53.82
  C 4.55 50.13 4.88 46.35 5.53 42.48
  C 6.37 37.45 7.98 32.94 10.37 28.93
  C 10.55 28.62 10.61 28.19 10.51 27.84
  C 10.44 27.60 10.54 27.34 10.75 27.21
  C 11.47 26.78 11.93 26.12 12.13 25.25
  C 12.23 24.83 12.47 24.46 12.82 24.22
  C 13.86 23.47 13.98 22.32 14.81 21.31
  C 20.37 14.48 27.19 9.34 35.26 5.90
  C 36.65 5.31 37.99 4.88 39.29 4.59
  C 41.19 4.18 43.01 3.34 44.89 3.14
  C 46.97 2.92 49.05 2.69 51.14 2.46
  C 54.11 2.13 57.06 2.73 60.00 2.93
  C 61.29 3.02 62.59 3.25 63.90 3.64
  C 65.18 4.01 66.47 4.35 67.76 4.65
  C 69.27 5.00 70.69 5.53 72.02 6.26
  C 73.43 7.03 74.85 7.74 76.28 8.41
  C 76.60 8.56 76.93 8.60 77.28 8.54
  Z"
/>
<g stroke-width="2.00" fill="none" stroke-linecap="butt">
<path stroke="#b88d97" vector-effect="non-scaling-stroke" d="
  M 100.28 62.67
  C 99.15 63.73 98.31 65.07 97.75 66.70
  C 96.94 69.05 96.35 70.47 95.98 70.97
  C 94.32 73.16 92.07 74.25 89.24 74.24
  C 86.38 74.23 84.32 74.54 83.06 75.15"
/>
<path stroke="#c0b38b" vector-effect="non-scaling-stroke" d="
  M 83.06 75.15
  C 78.52 65.22 71.13 58.85 60.88 56.06
  C 58.41 55.39 55.54 55.32 53.01 55.31
  C 45.63 55.29 39.73 57.41 34.02 61.58
  C 32.03 63.04 30.55 64.30 29.60 65.35
  C 27.98 67.14 25.93 70.31 23.44 74.85"
/>
<path stroke="#b88d97" vector-effect="non-scaling-stroke" d="
  M 23.44 74.85
  C 21.10 74.52 18.85 74.22 16.70 73.96
  C 14.80 73.73 13.33 73.23 12.30 72.46
  C 10.98 71.48 9.92 70.26 9.13 68.81
  C 8.05 66.82 8.92 64.29 6.32 62.61"
/>
<path stroke="#875645" vector-effect="non-scaling-stroke" d="
  M 100.53 80.81
  C 97.97 81.72 95.40 82.23 92.82 82.32
  C 91.20 82.38 89.96 82.66 89.09 83.17
  C 86.89 84.46 84.89 86.49 84.43 89.07
  C 83.80 92.64 81.69 95.20 78.09 96.75
  C 75.03 98.06 71.47 96.31 68.60 98.50
  C 66.49 100.11 64.10 102.24 64.11 105.13
  C 64.12 105.46 64.26 105.71 64.55 105.87
  C 67.38 107.44 68.26 110.75 69.45 114.48"
/>
<path stroke="#bbab67" vector-effect="non-scaling-stroke" d="
  M 69.45 114.48
  C 71.28 117.78 74.25 119.44 78.36 119.45"
/>
<path stroke="#875645" vector-effect="non-scaling-stroke" d="
  M 78.36 119.45
  C 83.42 119.37 86.68 121.38 88.14 125.47"
/>
<path stroke="#b88d97" vector-effect="non-scaling-stroke" d="
  M 88.14 125.47
  C 89.53 132.24 93.66 135.27 100.55 134.58"
/>
<path stroke="#875645" vector-effect="non-scaling-stroke" d="
  M 97.06 143.63
  C 94.82 141.57 91.90 142.84 89.22 142.18
  C 85.75 141.32 83.55 139.01 82.60 135.26
  C 81.37 130.39 77.81 127.32 72.87 127.47
  C 67.24 127.64 63.72 124.98 62.31 119.48
  C 60.90 113.98 56.43 112.11 51.30 112.25
  C 48.47 112.33 46.15 111.21 44.34 108.90
  C 42.07 106.00 42.29 102.02 39.44 99.56
  C 37.60 97.97 35.41 97.21 32.86 97.28
  C 27.08 97.43 23.53 94.78 22.21 89.31
  C 21.54 86.54 19.91 84.46 17.33 83.09
  C 13.66 81.13 9.96 83.35 6.29 80.46"
/>
<path stroke="#f4b35d" vector-effect="non-scaling-stroke" d="
  M 83.06 75.15
  C 80.28 76.74 78.62 78.66 78.08 80.91
  C 76.49 87.64 73.07 89.34 66.94 89.29
  C 62.56 89.25 58.85 92.72 57.86 96.86
  C 57.35 98.99 56.31 100.82 54.72 102.35
  C 53.92 103.13 52.64 103.15 51.82 102.39
  C 50.10 100.83 48.95 98.89 48.41 96.71
  C 47.12 91.58 43.78 89.10 38.39 89.27
  C 33.05 89.44 29.56 86.35 28.22 81.00
  C 27.58 78.44 25.99 76.39 23.44 74.85"
/>
<path stroke="#577443" vector-effect="non-scaling-stroke" d="
  M 76.48 143.49
  C 76.09 140.94 74.85 139.32 72.74 138.61
  C 72.39 138.48 72.15 138.30 71.98 137.96
  C 71.84 137.66 71.55 137.47 71.22 137.46
  C 69.68 137.40 68.53 136.97 66.92 137.03
  C 65.42 137.08 63.96 136.86 62.55 136.36
  C 62.24 136.25 61.99 136.06 61.80 135.80
  C 61.63 135.56 61.40 135.42 61.10 135.38
  C 60.71 135.32 60.38 135.16 60.09 134.89
  C 58.56 133.45 57.54 131.67 57.01 129.54
  C 56.10 125.89 54.16 123.58 51.21 122.63
  C 49.88 122.20 48.58 121.99 47.31 121.98
  C 45.96 121.98 44.56 121.83 43.11 121.54
  C 42.66 121.45 42.26 121.25 41.92 120.95
  C 40.58 119.80 39.45 119.56 38.50 117.97
  C 37.75 116.73 37.16 115.33 36.73 113.76
  C 35.78 110.35 33.65 108.17 30.34 107.22
  C 30.24 107.19 28.87 107.10 26.22 106.94
  C 21.51 106.66 18.44 104.30 17.03 99.85
  C 16.40 97.86 15.97 96.66 15.74 96.25
  C 13.87 92.74 10.43 91.71 6.28 91.63"
/>
<path stroke="#545673" vector-effect="non-scaling-stroke" d="
  M 100.38 123.07
  C 96.83 124.59 92.75 125.39 88.14 125.47"
/>
<path stroke="#577443" vector-effect="non-scaling-stroke" d="
  M 100.41 91.66
  C 95.64 91.35 92.34 92.98 90.51 96.53
  C 89.90 97.72 89.38 99.13 88.97 100.76
  C 88.60 102.22 87.82 103.43 86.64 104.40
  C 84.20 106.39 81.48 107.25 78.29 106.97
  C 76.79 106.84 75.38 107.19 74.07 108.03
  C 71.66 109.59 70.12 111.74 69.45 114.48"
/>
<path stroke="#577443" vector-effect="non-scaling-stroke" d="
  M 100.40 103.03
  C 99.21 103.45 98.44 104.15 98.10 105.13
  C 96.83 108.75 95.74 113.23 91.77 114.98
  C 90.97 115.33 89.41 115.56 87.10 115.67
  C 83.78 115.82 80.87 117.08 78.36 119.45"
/>
<path stroke="#577443" vector-effect="non-scaling-stroke" d="
  M 52.12 143.52
  C 50.74 141.59 49.98 140.30 49.84 139.67
  C 48.98 135.79 47.26 133.22 44.67 131.97
  C 43.07 131.19 41.42 130.85 39.71 130.96
  C 34.51 131.28 30.92 128.45 29.47 123.28
  C 29.18 122.25 28.80 121.29 28.33 120.40
  C 27.51 118.85 26.15 118.14 24.99 116.94
  C 24.76 116.71 24.49 116.56 24.18 116.49
  C 21.93 116.00 19.76 115.74 17.67 115.71
  C 13.93 115.67 10.43 112.43 9.71 109.27
  C 9.08 106.45 7.94 104.41 6.29 103.15"
/>
<path stroke="#545673" vector-effect="non-scaling-stroke" d="
  M 41.97 143.48
  C 39.88 141.41 37.46 140.26 34.71 140.04
  C 31.70 139.80 30.07 139.64 29.82 139.55
  C 26.54 138.50 24.43 136.25 23.48 132.78
  C 22.45 128.95 20.29 126.50 17.01 125.41
  C 16.54 125.26 15.02 125.14 12.44 125.05
  C 10.03 124.97 7.99 124.10 6.30 122.44"
/>
<path stroke="#545673" vector-effect="non-scaling-stroke" d="
  M 18.28 143.52
  C 16.99 137.19 13.01 134.16 6.35 134.41"
/>
</g>
<g>
<path fill="#848cc5" d="
  M 100.28 62.67
  C 99.15 63.73 98.31 65.07 97.75 66.70
  C 96.94 69.05 96.35 70.47 95.98 70.97
  C 94.32 73.16 92.07 74.25 89.24 74.24
  C 86.38 74.23 84.32 74.54 83.06 75.15
  C 78.52 65.22 71.13 58.85 60.88 56.06
  C 58.41 55.39 55.54 55.32 53.01 55.31
  C 45.63 55.29 39.73 57.41 34.02 61.58
  C 32.03 63.04 30.55 64.30 29.60 65.35
  C 27.98 67.14 25.93 70.31 23.44 74.85
  C 21.10 74.52 18.85 74.22 16.70 73.96
  C 14.80 73.73 13.33 73.23 12.30 72.46
  C 10.98 71.48 9.92 70.26 9.13 68.81
  C 8.05 66.82 8.92 64.29 6.32 62.61
  C 5.99 55.09 6.20 48.64 6.97 43.25
  C 7.30 40.97 8.19 37.76 9.64 33.62
  C 9.74 33.33 9.90 33.08 10.12 32.86
  C 10.37 32.62 10.49 32.33 10.48 31.99
  C 10.47 31.65 10.53 31.33 10.68 31.02
  C 11.15 30.06 11.64 29.16 12.16 28.32
  C 13.15 26.74 14.19 25.13 15.26 23.49
  C 16.30 21.90 17.49 20.41 18.84 19.03
  C 22.54 15.23 27.09 11.43 31.96 9.22
  C 33.20 8.66 34.46 8.07 35.74 7.45
  C 37.20 6.74 38.72 6.23 40.29 5.92
  C 41.42 5.70 42.52 5.41 43.59 5.06
  C 44.52 4.75 45.56 4.55 46.71 4.45
  C 52.54 3.93 57.43 4.04 61.38 4.77
  C 64.77 5.40 68.33 6.40 72.04 7.79
  C 72.19 7.84 72.33 7.91 72.48 7.98
  C 73.63 8.56 74.79 9.12 75.96 9.67
  C 76.78 10.06 77.55 10.54 78.26 11.11
  C 79.89 12.42 81.52 13.62 83.17 14.73
  C 85.46 16.28 87.21 18.45 89.24 20.29
  C 89.41 20.44 89.53 20.63 89.59 20.86
  C 89.60 20.94 89.62 21.02 89.64 21.11
  C 89.67 21.23 89.72 21.34 89.80 21.44
  C 94.89 28.03 98.09 34.81 99.39 41.78
  C 100.59 48.23 100.89 55.19 100.28 62.67
  Z"
/>
<path fill="#fcd950" d="
  M 83.06 75.15
  C 80.28 76.74 78.62 78.66 78.08 80.91
  C 76.49 87.64 73.07 89.34 66.94 89.29
  C 62.56 89.25 58.85 92.72 57.86 96.86
  C 57.35 98.99 56.31 100.82 54.72 102.35
  C 53.92 103.13 52.64 103.15 51.82 102.39
  C 50.10 100.83 48.95 98.89 48.41 96.71
  C 47.12 91.58 43.78 89.10 38.39 89.27
  C 33.05 89.44 29.56 86.35 28.22 81.00
  C 27.58 78.44 25.99 76.39 23.44 74.85
  C 25.93 70.31 27.98 67.14 29.60 65.35
  C 30.55 64.30 32.03 63.04 34.02 61.58
  C 39.73 57.41 45.63 55.29 53.01 55.31
  C 55.54 55.32 58.41 55.39 60.88 56.06
  C 71.13 58.85 78.52 65.22 83.06 75.15
  Z"
/>
<path fill="#eb8d69" d="
  M 6.32 62.61
  C 8.92 64.29 8.05 66.82 9.13 68.81
  C 9.92 70.26 10.98 71.48 12.30 72.46
  C 13.33 73.23 14.80 73.73 16.70 73.96
  C 18.85 74.22 21.10 74.52 23.44 74.85
  C 25.99 76.39 27.58 78.44 28.22 81.00
  C 29.56 86.35 33.05 89.44 38.39 89.27
  C 43.78 89.10 47.12 91.58 48.41 96.71
  C 48.95 98.89 50.10 100.83 51.82 102.39
  C 52.64 103.15 53.92 103.13 54.72 102.35
  C 56.31 100.82 57.35 98.99 57.86 96.86
  C 58.85 92.72 62.56 89.25 66.94 89.29
  C 73.07 89.34 76.49 87.64 78.08 80.91
  C 78.62 78.66 80.28 76.74 83.06 75.15
  C 84.32 74.54 86.38 74.23 89.24 74.24
  C 92.07 74.25 94.32 73.16 95.98 70.97
  C 96.35 70.47 96.94 69.05 97.75 66.70
  C 98.31 65.07 99.15 63.73 100.28 62.67
  L 100.53 80.81
  C 97.97 81.72 95.40 82.23 92.82 82.32
  C 91.20 82.38 89.96 82.66 89.09 83.17
  C 86.89 84.46 84.89 86.49 84.43 89.07
  C 83.80 92.64 81.69 95.20 78.09 96.75
  C 75.03 98.06 71.47 96.31 68.60 98.50
  C 66.49 100.11 64.10 102.24 64.11 105.13
  C 64.12 105.46 64.26 105.71 64.55 105.87
  C 67.38 107.44 68.26 110.75 69.45 114.48
  C 71.28 117.78 74.25 119.44 78.36 119.45
  C 83.42 119.37 86.68 121.38 88.14 125.47
  C 89.53 132.24 93.66 135.27 100.55 134.58
  L 100.84 142.77
  C 100.85 143.12 100.69 143.36 100.37 143.49
  C 99.42 143.88 98.32 143.93 97.06 143.63
  C 94.82 141.57 91.90 142.84 89.22 142.18
  C 85.75 141.32 83.55 139.01 82.60 135.26
  C 81.37 130.39 77.81 127.32 72.87 127.47
  C 67.24 127.64 63.72 124.98 62.31 119.48
  C 60.90 113.98 56.43 112.11 51.30 112.25
  C 48.47 112.33 46.15 111.21 44.34 108.90
  C 42.07 106.00 42.29 102.02 39.44 99.56
  C 37.60 97.97 35.41 97.21 32.86 97.28
  C 27.08 97.43 23.53 94.78 22.21 89.31
  C 21.54 86.54 19.91 84.46 17.33 83.09
  C 13.66 81.13 9.96 83.35 6.29 80.46
  L 6.32 62.61
  Z"
/>
<path fill="#231f20" d="
  M 6.29 80.46
  C 9.96 83.35 13.66 81.13 17.33 83.09
  C 19.91 84.46 21.54 86.54 22.21 89.31
  C 23.53 94.78 27.08 97.43 32.86 97.28
  C 35.41 97.21 37.60 97.97 39.44 99.56
  C 42.29 102.02 42.07 106.00 44.34 108.90
  C 46.15 111.21 48.47 112.33 51.30 112.25
  C 56.43 112.11 60.90 113.98 62.31 119.48
  C 63.72 124.98 67.24 127.64 72.87 127.47
  C 77.81 127.32 81.37 130.39 82.60 135.26
  C 83.55 139.01 85.75 141.32 89.22 142.18
  C 91.90 142.84 94.82 141.57 97.06 143.63
  L 76.48 143.49
  C 76.09 140.94 74.85 139.32 72.74 138.61
  C 72.39 138.48 72.15 138.30 71.98 137.96
  C 71.84 137.66 71.55 137.47 71.22 137.46
  C 69.68 137.40 68.53 136.97 66.92 137.03
  C 65.42 137.08 63.96 136.86 62.55 136.36
  C 62.24 136.25 61.99 136.06 61.80 135.80
  C 61.63 135.56 61.40 135.42 61.10 135.38
  C 60.71 135.32 60.38 135.16 60.09 134.89
  C 58.56 133.45 57.54 131.67 57.01 129.54
  C 56.10 125.89 54.16 123.58 51.21 122.63
  C 49.88 122.20 48.58 121.99 47.31 121.98
  C 45.96 121.98 44.56 121.83 43.11 121.54
  C 42.66 121.45 42.26 121.25 41.92 120.95
  C 40.58 119.80 39.45 119.56 38.50 117.97
  C 37.75 116.73 37.16 115.33 36.73 113.76
  C 35.78 110.35 33.65 108.17 30.34 107.22
  C 30.24 107.19 28.87 107.10 26.22 106.94
  C 21.51 106.66 18.44 104.30 17.03 99.85
  C 16.40 97.86 15.97 96.66 15.74 96.25
  C 13.87 92.74 10.43 91.71 6.28 91.63
  L 6.29 80.46
  Z"
/>
<path fill="#231f20" d="
  M 100.53 80.81
  L 100.41 91.66
  C 95.64 91.35 92.34 92.98 90.51 96.53
  C 89.90 97.72 89.38 99.13 88.97 100.76
  C 88.60 102.22 87.82 103.43 86.64 104.40
  C 84.20 106.39 81.48 107.25 78.29 106.97
  C 76.79 106.84 75.38 107.19 74.07 108.03
  C 71.66 109.59 70.12 111.74 69.45 114.48
  C 68.26 110.75 67.38 107.44 64.55 105.87
  C 64.26 105.71 64.12 105.46 64.11 105.13
  C 64.10 102.24 66.49 100.11 68.60 98.50
  C 71.47 96.31 75.03 98.06 78.09 96.75
  C 81.69 95.20 83.80 92.64 84.43 89.07
  C 84.89 86.49 86.89 84.46 89.09 83.17
  C 89.96 82.66 91.20 82.38 92.82 82.32
  C 95.40 82.23 97.97 81.72 100.53 80.81
  Z"
/>
<path fill="#8ac865" d="
  M 100.41 91.66
  C 100.96 95.23 100.95 99.02 100.40 103.03
  C 99.21 103.45 98.44 104.15 98.10 105.13
  C 96.83 108.75 95.74 113.23 91.77 114.98
  C 90.97 115.33 89.41 115.56 87.10 115.67
  C 83.78 115.82 80.87 117.08 78.36 119.45
  C 74.25 119.44 71.28 117.78 69.45 114.48
  C 70.12 111.74 71.66 109.59 74.07 108.03
  C 75.38 107.19 76.79 106.84 78.29 106.97
  C 81.48 107.25 84.20 106.39 86.64 104.40
  C 87.82 103.43 88.60 102.22 88.97 100.76
  C 89.38 99.13 89.90 97.72 90.51 96.53
  C 92.34 92.98 95.64 91.35 100.41 91.66
  Z"
/>
<path fill="#8ac865" d="
  M 6.28 91.63
  C 10.43 91.71 13.87 92.74 15.74 96.25
  C 15.97 96.66 16.40 97.86 17.03 99.85
  C 18.44 104.30 21.51 106.66 26.22 106.94
  C 28.87 107.10 30.24 107.19 30.34 107.22
  C 33.65 108.17 35.78 110.35 36.73 113.76
  C 37.16 115.33 37.75 116.73 38.50 117.97
  C 39.45 119.56 40.58 119.80 41.92 120.95
  C 42.26 121.25 42.66 121.45 43.11 121.54
  C 44.56 121.83 45.96 121.98 47.31 121.98
  C 48.58 121.99 49.88 122.20 51.21 122.63
  C 54.16 123.58 56.10 125.89 57.01 129.54
  C 57.54 131.67 58.56 133.45 60.09 134.89
  C 60.38 135.16 60.71 135.32 61.10 135.38
  C 61.40 135.42 61.63 135.56 61.80 135.80
  C 61.99 136.06 62.24 136.25 62.55 136.36
  C 63.96 136.86 65.42 137.08 66.92 137.03
  C 68.53 136.97 69.68 137.40 71.22 137.46
  C 71.55 137.47 71.84 137.66 71.98 137.96
  C 72.15 138.30 72.39 138.48 72.74 138.61
  C 74.85 139.32 76.09 140.94 76.48 143.49
  L 52.12 143.52
  C 50.74 141.59 49.98 140.30 49.84 139.67
  C 48.98 135.79 47.26 133.22 44.67 131.97
  C 43.07 131.19 41.42 130.85 39.71 130.96
  C 34.51 131.28 30.92 128.45 29.47 123.28
  C 29.18 122.25 28.80 121.29 28.33 120.40
  C 27.51 118.85 26.15 118.14 24.99 116.94
  C 24.76 116.71 24.49 116.56 24.18 116.49
  C 21.93 116.00 19.76 115.74 17.67 115.71
  C 13.93 115.67 10.43 112.43 9.71 109.27
  C 9.08 106.45 7.94 104.41 6.29 103.15
  L 6.28 91.63
  Z"
/>
<path fill="#231f20" d="
  M 100.40 103.03
  L 100.38 123.07
  C 96.83 124.59 92.75 125.39 88.14 125.47
  C 86.68 121.38 83.42 119.37 78.36 119.45
  C 80.87 117.08 83.78 115.82 87.10 115.67
  C 89.41 115.56 90.97 115.33 91.77 114.98
  C 95.74 113.23 96.83 108.75 98.10 105.13
  C 98.44 104.15 99.21 103.45 100.40 103.03
  Z"
/>
<path fill="#231f20" d="
  M 6.29 103.15
  C 7.94 104.41 9.08 106.45 9.71 109.27
  C 10.43 112.43 13.93 115.67 17.67 115.71
  C 19.76 115.74 21.93 116.00 24.18 116.49
  C 24.49 116.56 24.76 116.71 24.99 116.94
  C 26.15 118.14 27.51 118.85 28.33 120.40
  C 28.80 121.29 29.18 122.25 29.47 123.28
  C 30.92 128.45 34.51 131.28 39.71 130.96
  C 41.42 130.85 43.07 131.19 44.67 131.97
  C 47.26 133.22 48.98 135.79 49.84 139.67
  C 49.98 140.30 50.74 141.59 52.12 143.52
  L 41.97 143.48
  C 39.88 141.41 37.46 140.26 34.71 140.04
  C 31.70 139.80 30.07 139.64 29.82 139.55
  C 26.54 138.50 24.43 136.25 23.48 132.78
  C 22.45 128.95 20.29 126.50 17.01 125.41
  C 16.54 125.26 15.02 125.14 12.44 125.05
  C 10.03 124.97 7.99 124.10 6.30 122.44
  L 6.29 103.15
  Z"
/>
<path fill="#848cc5" d="
  M 6.30 122.44
  C 7.99 124.10 10.03 124.97 12.44 125.05
  C 15.02 125.14 16.54 125.26 17.01 125.41
  C 20.29 126.50 22.45 128.95 23.48 132.78
  C 24.43 136.25 26.54 138.50 29.82 139.55
  C 30.07 139.64 31.70 139.80 34.71 140.04
  C 37.46 140.26 39.88 141.41 41.97 143.48
  L 18.28 143.52
  C 16.99 137.19 13.01 134.16 6.35 134.41
  L 6.30 122.44
  Z"
/>
<path fill="#848cc5" d="
  M 100.38 123.07
  L 100.55 134.58
  C 93.66 135.27 89.53 132.24 88.14 125.47
  C 92.75 125.39 96.83 124.59 100.38 123.07
  Z"
/>
<path fill="#231f20" d="
  M 6.35 134.41
  C 13.01 134.16 16.99 137.19 18.28 143.52
  L 6.79 143.44
  C 6.45 143.43 6.28 143.26 6.28 142.92
  L 6.35 134.41
  Z"
/>
</g>
<g>
<path fill="#f9f0df" d="
  M 65.14 24.10
  C 65.10 23.45 64.94 22.84 64.65 22.29
  C 64.36 21.73 64.44 21.68 64.87 22.14
  L 66.31 23.68
  C 66.43 23.81 66.60 23.90 66.79 23.91
  L 68.25 24.03
  C 68.78 24.08 68.93 24.34 68.72 24.82
  C 68.62 25.05 68.61 25.29 68.68 25.54
  C 69.08 26.81 67.90 28.05 66.50 27.83
  C 65.26 27.64 64.15 27.82 63.17 28.38
  C 62.68 28.66 62.62 28.59 62.99 28.16
  C 63.52 27.55 64.20 27.09 65.03 26.79
  C 65.32 26.69 65.39 26.50 65.25 26.23
  L 64.45 24.73
  C 64.33 24.51 64.38 24.34 64.60 24.22
  C 64.69 24.17 64.76 24.18 64.83 24.24
  C 65.06 24.46 65.16 24.41 65.14 24.10
  Z"
/>
<path fill="#f9f0df" d="
  M 67.61 22.14
  C 67.08 21.70 67.14 21.59 67.79 21.80
  C 68.46 22.02 69.11 22.28 69.72 22.57
  C 70.30 22.85 70.27 22.97 69.63 22.92
  C 68.86 22.87 68.19 22.61 67.61 22.14
  Z"
/>
<path fill="#f9f0df" d="
  M 41.59 24.19
  L 42.04 24.07
  C 42.33 23.99 42.56 24.08 42.71 24.35
  C 43.01 24.86 43.43 24.99 43.97 24.72
  C 44.66 24.39 45.34 24.05 46.02 23.72
  C 46.52 23.47 46.58 23.55 46.20 23.96
  C 45.79 24.41 45.33 24.76 44.82 25.03
  C 44.51 25.19 44.37 25.44 44.40 25.78
  C 44.45 26.28 44.31 26.71 43.99 27.06
  C 43.11 28.06 43.52 29.61 44.57 30.28
  C 44.70 30.37 44.72 30.47 44.62 30.60
  L 44.62 30.61
  C 44.52 30.73 44.42 30.74 44.31 30.63
  C 43.77 30.08 43.14 29.54 42.43 29.02
  C 42.14 28.81 41.82 28.73 41.47 28.79
  C 40.41 28.96 39.87 29.50 39.85 30.39
  C 39.84 30.70 39.69 30.80 39.40 30.71
  C 39.31 30.68 39.24 30.60 39.19 30.49
  C 39.16 30.40 39.16 30.32 39.21 30.24
  L 40.06 28.85
  C 40.28 28.49 40.23 28.17 39.90 27.90
  C 39.25 27.35 38.48 26.97 37.60 26.74
  C 37.08 26.61 37.08 26.46 37.59 26.31
  C 37.99 26.19 38.36 26.24 38.69 26.45
  C 39.08 26.70 39.41 26.64 39.67 26.25
  L 40.60 24.87
  C 40.79 24.60 40.73 24.39 40.43 24.24
  C 40.22 24.14 40.13 23.96 40.18 23.71
  C 40.23 23.42 40.53 23.25 40.81 23.34
  C 41.02 23.41 41.11 23.55 41.09 23.78
  C 41.07 24.05 41.33 24.26 41.59 24.19
  Z"
/>
<path fill="#f9f0df" d="
  M 45.08 26.86
  C 44.77 26.73 44.74 26.56 45.00 26.35
  C 45.25 26.15 45.52 26.11 45.81 26.22
  C 46.59 26.53 46.57 26.77 45.74 26.93
  C 45.51 26.98 45.29 26.95 45.08 26.86
  Z"
/>
<path fill="#f9f0df" d="
  M 36.23 44.82
  C 36.50 44.42 36.86 44.18 37.33 44.11
  C 37.86 44.02 37.99 44.21 37.70 44.67
  C 35.74 47.76 33.14 49.58 29.89 50.14
  C 26.83 50.67 24.12 50.06 21.75 48.32
  C 17.84 45.44 16.58 41.45 17.95 36.36
  C 18.34 34.93 19.05 33.65 20.09 32.54
  C 20.46 32.15 20.59 32.22 20.50 32.75
  C 19.79 36.70 20.53 39.99 22.74 42.60
  C 25.60 45.99 29.75 46.97 35.18 45.56
  C 35.63 45.45 35.98 45.20 36.23 44.82
  Z"
/>
<path fill="#f9f0df" d="
  M 83.58 43.19
  C 83.53 43.07 83.49 42.95 83.46 42.83
  C 83.38 42.48 83.48 42.20 83.75 41.97
  C 84.38 41.44 84.87 40.83 85.22 40.14
  C 85.41 39.77 85.65 39.73 85.94 40.03
  C 86.26 40.36 86.64 40.46 87.08 40.34
  C 87.33 40.27 87.54 40.35 87.69 40.57
  C 88.14 41.24 88.68 41.30 89.30 40.75
  C 89.64 40.45 89.73 40.51 89.57 40.94
  C 89.42 41.37 89.09 41.65 88.59 41.76
  C 88.34 41.81 88.16 41.73 88.03 41.52
  C 87.94 41.36 87.81 41.26 87.62 41.21
  C 86.91 41.04 86.75 41.26 87.15 41.88
  C 87.42 42.30 87.61 42.76 87.72 43.27
  C 87.81 43.68 88.01 43.74 88.32 43.45
  C 88.61 43.17 88.94 43.09 89.30 43.20
  C 89.87 43.39 89.88 43.59 89.31 43.80
  C 88.24 44.18 87.35 44.83 86.63 45.75
  C 86.32 46.15 85.74 46.21 85.34 45.89
  C 84.99 45.60 84.59 45.44 84.13 45.41
  C 83.67 45.38 83.31 45.18 83.05 44.79
  C 82.64 44.17 82.02 43.83 81.17 43.77
  C 80.50 43.72 80.49 43.60 81.13 43.41
  C 81.86 43.18 82.50 43.25 83.06 43.62
  C 83.67 44.01 83.84 43.87 83.58 43.19
  Z"
/>
</g>
</svg>
