<svg width="743" height="91" viewBox="0 0 743 91" fill="none" xmlns="http://www.w3.org/2000/svg">
<path d="M65.5824 88.6918C102.949 88.7443 102.236 60.8521 139.563 60.9341C176.929 60.9867 176.858 89.7109 214.185 89.7928C251.551 89.8454 251.622 61.1212 288.959 61.1347C326.325 61.1873 326.254 89.9115 363.581 89.9934C400.947 90.046 401.018 61.3218 438.355 61.3352C475.721 61.3878 475.65 90.112 512.977 90.1939C550.343 90.2465 550.414 61.5223 587.751 61.5358C625.117 61.5883 625.046 90.3126 662.373 90.3945C697.919 90.467 699.035 64.4437 731.41 62.0015L742.303 53.8376L709.297 9.80248C696.016 18.2898 687.519 30.4659 663.192 30.421C625.826 30.3684 625.897 1.64424 588.57 1.56228C551.204 1.5097 551.133 30.2339 513.767 30.1813C476.401 30.1287 476.511 1.37516 439.145 1.32257C401.778 1.26998 401.737 30.0333 364.41 29.9514C327.044 29.8988 327.115 1.17461 289.788 1.09265C252.421 1.04007 252.351 29.7643 214.984 29.7117C177.618 29.6591 177.728 0.905541 140.362 0.852955C102.996 0.80037 102.925 29.5246 65.5589 29.472C28.1927 29.4194 28.0672 1.33137 0.138056 1.29681L65.5629 88.5841L65.5824 88.6918Z" fill="#EB8D69"/>
</svg>
