<svg width="743" height="91" viewBox="0 0 743 91" fill="none" xmlns="http://www.w3.org/2000/svg">
<path d="M65.4835 88.6722C102.85 88.7248 102.137 60.8326 139.464 60.9146C176.83 60.9672 176.759 89.6914 214.086 89.7733C251.452 89.8259 251.523 61.1017 288.86 61.1152C326.226 61.1677 326.155 89.8919 363.482 89.9739C400.848 90.0265 400.919 61.3023 438.256 61.3157C475.622 61.3683 475.551 90.0925 512.878 90.1744C550.245 90.227 550.315 61.5028 587.652 61.5162C625.018 61.5688 624.948 90.2931 662.275 90.375C697.82 90.4475 698.936 64.4242 731.312 61.982L742.204 53.818L709.198 9.78295C695.917 18.2703 687.42 30.4464 663.094 30.4015C625.727 30.3489 625.798 1.6247 588.471 1.54275C551.105 1.49017 551.034 30.2143 513.668 30.1618C476.302 30.1092 476.412 1.35562 439.046 1.30304C401.68 1.25045 401.638 30.0138 364.311 29.9318C326.945 29.8793 327.016 1.15508 289.689 1.07312C252.323 1.02054 252.252 29.7447 214.886 29.6922C177.519 29.6396 177.629 0.886009 140.263 0.833424C102.897 0.780839 102.826 29.5051 65.46 29.4525C28.0939 29.3999 27.9684 1.31184 0.039179 1.27727L65.464 88.5646L65.4835 88.6722Z" fill="#8AC865"/>
</svg>
